<svg width="20" height="21" viewBox="0 0 20 21" fill="none" xmlns="http://www.w3.org/2000/svg">
<path d="M19.8689 11.1087C19.8698 10.4272 19.8117 9.74701 19.6955 9.07544H10.1997V12.9266H15.6385C15.5272 13.5417 15.2916 14.1281 14.946 14.6503C14.6004 15.1726 14.1518 15.6199 13.6274 15.9654V18.4652H16.8733C18.7739 16.7251 19.8689 14.1516 19.8689 11.1087Z" fill="#4285F4"/>
<path d="M10.1998 20.8806C12.9171 20.8806 15.205 19.9946 16.8734 18.4669L13.6275 15.967C12.7241 16.5753 11.5605 16.9225 10.1998 16.9225C7.5734 16.9225 5.3442 15.1642 4.54706 12.7949H1.20325V15.3712C2.04132 17.0273 3.32641 18.4195 4.91506 19.3924C6.5037 20.3653 8.33336 20.8805 10.1998 20.8806Z" fill="#34A853"/>
<path d="M4.54698 12.7946C4.12556 11.5531 4.12556 10.2086 4.54698 8.96701V6.39075H1.20317C0.498154 7.78395 0.130981 9.32157 0.130981 10.8808C0.130981 12.44 0.498154 13.9777 1.20317 15.3709L4.54698 12.7946Z" fill="#FBBC04"/>
<path d="M10.1998 4.83941C11.6357 4.81611 13.0233 5.3549 14.0624 6.33933L16.9363 3.48531C15.114 1.7855 12.6998 0.852274 10.1998 0.881271C8.33336 0.881356 6.5037 1.3966 4.91506 2.36948C3.32641 3.34236 2.04132 4.73458 1.20325 6.39072L4.54706 8.96698C5.3442 6.59765 7.5734 4.83941 10.1998 4.83941Z" fill="#EA4335"/>
</svg>
