<svg width="17" height="17" viewBox="0 0 17 17" fill="none" xmlns="http://www.w3.org/2000/svg">
<path d="M8.5 3.04724C4.86364 3.04724 1.75818 5.30906 0.5 8.50179C1.75818 11.6945 4.86364 13.9563 8.5 13.9563C12.1364 13.9563 15.2418 11.6945 16.5 8.50179C15.2418 5.30906 12.1364 3.04724 8.5 3.04724ZM8.5 12.1382C6.49273 12.1382 4.86364 10.5091 4.86364 8.50179C4.86364 6.49451 6.49273 4.86542 8.5 4.86542C10.5073 4.86542 12.1364 6.49451 12.1364 8.50179C12.1364 10.5091 10.5073 12.1382 8.5 12.1382ZM8.5 6.31997C7.29273 6.31997 6.31818 7.29451 6.31818 8.50179C6.31818 9.70906 7.29273 10.6836 8.5 10.6836C9.70727 10.6836 10.6818 9.70906 10.6818 8.50179C10.6818 7.29451 9.70727 6.31997 8.5 6.31997Z" fill="#4D4D4D"/>
</svg>
